<?xml version="1.0" encoding="UTF-8"?>
<!-- LinkedIn logo (square with 'in'), blue #0A66C2, simplified for site use -->
<svg xmlns="http://www.w3.org/2000/svg" viewBox="0 0 34 34" width="120" height="120" role="img" aria-label="LinkedIn logo">
  <rect width="34" height="34" rx="6" fill="#0A66C2"/>
  <g fill="#fff">
    <path d="M10.5 13.2h3v10.8h-3z"/>
    <path d="M12 11.1a1.7 1.7 0 1 1 0-3.4 1.7 1.7 0 0 1 0 3.4z"/>
    <path d="M16.5 13.2h2.9v1.5h.04c.4-.7 1.4-1.5 2.9-1.5 3.1 0 3.7 2 3.7 4.6v6.3h-3V19.3c0-1.2 0-2.9-1.8-2.9-1.8 0-2 1.4-2 2.8v6.1h-3z"/>
  </g>
</svg>